<svg xmlns="http://www.w3.org/2000/svg" width="7016" height="1560" viewBox="0 0 7016 1560">
  <defs>
    <style>
      .cls-1 {
        fill: #fff;
        fill-rule: evenodd;
      }
    </style>
  </defs>
  <path id="lUDOS_copiar" data-name="lUDOS copiar" class="cls-1" d="M1722.09,36.7H1122.81V946.237q0,168.785,95.5,308.233t256.18,222.33q160.695,82.845,355.73,82.87,195.03,0,355.73-82.87t256.19-222.33q95.505-139.47,95.5-308.233V36.7H1722.09Zm2028.26,92.975Q3584.6,36.711,3362.28,36.7H2719.55V1516.21h642.73q222.315,0,388.07-92.97,166.755-92.97,259.72-258.71,92.97-166.755,92.98-388.072T4010.07,388.39q-92.985-165.73-259.72-258.712h0Zm483.07,979.772q61.62,144,169.78,244.56,108.12,100.575,251.13,153.11,142.995,52.53,305.7,52.55,163.725,0,306.72-52.55t251.13-153.11q108.12-100.545,169.27-244.56t61.15-324.908q0-177.856-61.65-322.884-61.65-145-169.78-248.1Q5408.72,110.477,5265.74,55.4,5122.715,0.329,4960.03.321q-161.7,0-304.69,55.078-143.01,55.093-251.64,158.158t-170.28,248.1q-61.665,145.027-61.65,322.884Q4171.77,965.455,4233.42,1109.45ZM574.056,1055.38H1034.89v460.83H0.039V36.7H574.056V1055.38ZM5854.41,1494.99q196.05,64.665,438.6,64.68,75.8,0,155.12-5.56a926.135,926.135,0,0,0,155.63-24.25,584.672,584.672,0,0,0,144.01-56.09q117.225-65.685,187.97-173.82,70.725-108.135,79.34-234.46,8.565-126.321-61.15-247.6-50.535-81.858-129.35-131.377A725.416,725.416,0,0,0,6655.81,608.7q-23.265-8.077-46.49-16.169-46.5-14.14-84.89-28.8-38.415-14.637-61.65-33.854-23.25-19.187-23.24-47.5,0-38.394,31.33-52.046t76.81-13.642q71.73,0,136.42,14.147,64.665,14.164,115.72,32.339,51.015,18.191,83.37,31.329a11.246,11.246,0,0,0,3.03,2.021l1.01-446.683Q6682.075,0.338,6453.69.321q-258.72,0-460.83,125.314Q5790.72,250.957,5790.74,492.48q0,171.817,95,279.935,93.975,109.145,253.66,161.7,12.12,4.05,24.25,8.085,48.51,16.177,89.44,31.833,40.92,15.681,66.7,34.362,25.77,18.705,25.77,42.95,0,30.315-19.2,45.48t-45.99,19.7a305.359,305.359,0,0,1-51.03,4.55,591.06,591.06,0,0,1-145.02-17.69q-70.26-17.655-127.34-40.92-57.1-23.235-102.57-44.47v477Z"/>
</svg>
